<?xml version="1.0" standalone="no"?>
<!DOCTYPE svg PUBLIC "-//W3C//DTD SVG 20010904//EN"
 "http://www.w3.org/TR/2001/REC-SVG-20010904/DTD/svg10.dtd">
<svg version="1.0" xmlns="http://www.w3.org/2000/svg"
 width="512.000000pt" height="512.000000pt" viewBox="0 0 512.000000 512.000000"
 preserveAspectRatio="xMidYMid meet">
<metadata>
Created by potrace 1.11, written by Peter Selinger 2001-2013
</metadata>
<g transform="translate(0.000000,512.000000) scale(0.100000,-0.100000)"
fill="#000000" stroke="none">
<path d="M3468 5035 c-2 -2 -30 -5 -63 -8 -211 -20 -450 -129 -640 -291 -59
-50 -78 -69 -162 -159 l-42 -45 -99 97 c-261 253 -543 383 -832 381 -97 0
-128 -3 -190 -16 -19 -4 -40 -8 -47 -10 -45 -9 -108 -84 -132 -157 -45 -137
50 -500 194 -737 l36 -60 -44 -57 c-135 -174 -183 -355 -155 -581 3 -20 -5
-27 -48 -45 -231 -99 -423 -334 -468 -574 -15 -82 -14 -218 3 -283 62 -235
219 -426 438 -532 80 -38 84 -42 77 -67 -4 -14 -8 -68 -9 -120 -2 -109 24
-231 70 -321 91 -180 258 -336 428 -400 28 -10 29 -11 22 -68 -7 -61 -8 -164
-1 -197 55 -267 214 -473 451 -585 175 -83 350 -94 528 -34 205 70 381 232
476 438 50 110 73 279 53 387 l-9 47 55 22 c86 36 194 114 267 192 166 180
239 407 201 625 l-8 42 67 30 c337 153 535 532 450 861 -59 228 -245 446 -453
532 l-54 22 8 66 c21 196 -35 388 -157 540 l-47 58 40 69 c94 158 163 338 194
501 32 168 24 252 -33 332 -37 51 -83 75 -168 89 -66 10 -192 20 -197 16z"/>
</g>
</svg>
